<svg xmlns="http://www.w3.org/2000/svg" viewBox="0 0 760 220" width="760" height="220" font-family="'Sarabun','Noto Sans Thai','Tahoma',sans-serif"><defs><marker id="ar" viewBox="0 0 10 10" refX="8" refY="5" markerWidth="7" markerHeight="7" orient="auto-start-reverse"><path d="M0,0 L10,5 L0,10 z" fill="#6b7280"/></marker></defs><rect width="760" height="220" rx="14" fill="#faf8f3" stroke="#e5e0d3"/><text x="380.0" y="30" font-size="20" text-anchor="middle" font-weight="700" fill="#1f2937">Wiki มายากลไพ่: ไพ่คำนวณ  &amp;  ไพ่ฝีมือ</text><g transform="rotate(-18 90 160)"><rect x="60" y="60" width="70" height="98" rx="6" fill="#ffffff" stroke="#6b7280" stroke-width="1.3" /><text x="66" y="79" font-size="16" text-anchor="start" font-weight="700" fill="#1f2937">A♠</text><text x="95.0" y="144" font-size="28" text-anchor="middle" font-weight="400" fill="#1f2937">♠</text></g><g transform="rotate(-11 190 160)"><rect x="160" y="60" width="70" height="98" rx="6" fill="#ffffff" stroke="#6b7280" stroke-width="1.3" /><text x="166" y="79" font-size="16" text-anchor="start" font-weight="700" fill="#c62828">K♥</text><text x="195.0" y="144" font-size="28" text-anchor="middle" font-weight="400" fill="#c62828">♥</text></g><g transform="rotate(-4 290 160)"><rect x="260" y="60" width="70" height="98" rx="6" fill="#ffffff" stroke="#6b7280" stroke-width="1.3" /><text x="266" y="79" font-size="16" text-anchor="start" font-weight="700" fill="#c62828">Q♦</text><text x="295.0" y="144" font-size="28" text-anchor="middle" font-weight="400" fill="#c62828">♦</text></g><g transform="rotate(3 390 160)"><rect x="360" y="60" width="70" height="98" rx="6" fill="#ffffff" stroke="#6b7280" stroke-width="1.3" /><text x="366" y="79" font-size="16" text-anchor="start" font-weight="700" fill="#1f2937">J♣</text><text x="395.0" y="144" font-size="28" text-anchor="middle" font-weight="400" fill="#1f2937">♣</text></g><g transform="rotate(10 490 160)"><rect x="460" y="60" width="70" height="98" rx="6" fill="#ffffff" stroke="#6b7280" stroke-width="1.3" /><text x="466" y="79" font-size="16" text-anchor="start" font-weight="700" fill="#c62828">10♥</text><text x="495.0" y="144" font-size="28" text-anchor="middle" font-weight="400" fill="#c62828">♥</text></g><g transform="rotate(17 590 160)"><rect x="560" y="60" width="70" height="98" rx="6" fill="#ffffff" stroke="#6b7280" stroke-width="1.3" /><text x="566" y="79" font-size="16" text-anchor="start" font-weight="700" fill="#1f2937">9♠</text><text x="595.0" y="144" font-size="28" text-anchor="middle" font-weight="400" fill="#1f2937">♠</text></g><text x="380" y="200" font-size="16" text-anchor="middle" font-weight="700" fill="#1d4ed8">ง่าย  →  กลาง  →  ยาก</text></svg>