<svg xmlns="http://www.w3.org/2000/svg" viewBox="0 0 760 330" width="760" height="330" font-family="'Sarabun','Noto Sans Thai','Tahoma',sans-serif"><defs><marker id="ar" viewBox="0 0 10 10" refX="8" refY="5" markerWidth="7" markerHeight="7" orient="auto-start-reverse"><path d="M0,0 L10,5 L0,10 z" fill="#6b7280"/></marker></defs><rect width="760" height="330" rx="14" fill="#faf8f3" stroke="#e5e0d3"/><text x="380.0" y="30" font-size="20" text-anchor="middle" font-weight="700" fill="#1f2937">เอซ 4 ใบจากการแจก 4 กอง: เอซอยู่ 4 ใบล่างสุด (ใบที่ 49–52)</text><text x="30" y="62" font-size="14" text-anchor="start" font-weight="600" fill="#1f2937">① สำรับ 52 ใบ: เอซ 4 ใบอยู่ล่างสุด</text><rect x="30" y="76" width="36" height="26" rx="5" fill="#ffffff" stroke="#9ca3af" stroke-width="1.2" /><text x="48.0" y="94.0" font-size="14" text-anchor="middle" font-weight="600" fill="#1f2937">?</text><rect x="70" y="76" width="36" height="26" rx="5" fill="#ffffff" stroke="#9ca3af" stroke-width="1.2" /><text x="88.0" y="94.0" font-size="14" text-anchor="middle" font-weight="600" fill="#1f2937">?</text><rect x="110" y="76" width="36" height="26" rx="5" fill="#ffffff" stroke="#9ca3af" stroke-width="1.2" /><text x="128.0" y="94.0" font-size="14" text-anchor="middle" font-weight="600" fill="#1f2937">?</text><rect x="150" y="76" width="36" height="26" rx="5" fill="#ffffff" stroke="#9ca3af" stroke-width="1.2" /><text x="168.0" y="94.0" font-size="14" text-anchor="middle" font-weight="600" fill="#1f2937">?</text><rect x="190" y="76" width="36" height="26" rx="5" fill="#ffffff" stroke="#9ca3af" stroke-width="1.2" /><text x="208.0" y="94.0" font-size="14" text-anchor="middle" font-weight="600" fill="#1f2937">?</text><rect x="230" y="76" width="36" height="26" rx="5" fill="#ffffff" stroke="#9ca3af" stroke-width="1.2" /><text x="248.0" y="94.0" font-size="14" text-anchor="middle" font-weight="600" fill="#1f2937">?</text><text x="276" y="94" font-size="16" text-anchor="start" font-weight="700" fill="#1f2937">…</text><rect x="300" y="76" width="48" height="26" rx="5" fill="#ffffff" stroke="#f59e0b" stroke-width="3" /><text x="324.0" y="94.0" font-size="14" text-anchor="middle" font-weight="600" fill="#1f2937">A♠</text><rect x="352" y="76" width="48" height="26" rx="5" fill="#ffffff" stroke="#f59e0b" stroke-width="3" /><text x="376.0" y="94.0" font-size="14" text-anchor="middle" font-weight="600" fill="#c62828">A♥</text><rect x="404" y="76" width="48" height="26" rx="5" fill="#ffffff" stroke="#f59e0b" stroke-width="3" /><text x="428.0" y="94.0" font-size="14" text-anchor="middle" font-weight="600" fill="#c62828">A♦</text><rect x="456" y="76" width="48" height="26" rx="5" fill="#ffffff" stroke="#f59e0b" stroke-width="3" /><text x="480.0" y="94.0" font-size="14" text-anchor="middle" font-weight="600" fill="#1f2937">A♣</text><text x="300" y="122" font-size="11" text-anchor="start" font-weight="400" fill="#6b7280">ใบที่ 49 50 51 52</text><text x="30" y="156" font-size="14" text-anchor="start" font-weight="600" fill="#1f2937">② แจกหงายหน้า/คว่ำหน้าทีละใบ วนซ้าย→ขวา 4 กอง จนหมดสำรับ (กองละ 13 ใบ)</text><text x="138" y="182" font-size="12" text-anchor="middle" font-weight="600" fill="#6b7280">กอง 1</text><rect x="90" y="190" width="96" height="18" rx="5" fill="#ffffff" stroke="#9ca3af" stroke-width="1.2" /><text x="138.0" y="204.0" font-size="14" text-anchor="middle" font-weight="600" fill="#1f2937">?</text><rect x="90" y="210" width="96" height="18" rx="5" fill="#ffffff" stroke="#9ca3af" stroke-width="1.2" /><text x="138.0" y="224.0" font-size="14" text-anchor="middle" font-weight="600" fill="#1f2937">?</text><rect x="90" y="230" width="96" height="18" rx="5" fill="#ffffff" stroke="#9ca3af" stroke-width="1.2" /><text x="138.0" y="244.0" font-size="14" text-anchor="middle" font-weight="600" fill="#1f2937">…</text><rect x="90" y="250" width="96" height="26" rx="5" fill="#ffffff" stroke="#f59e0b" stroke-width="3" /><text x="138.0" y="268.0" font-size="14" text-anchor="middle" font-weight="600" fill="#1f2937">A♠</text><text x="298" y="182" font-size="12" text-anchor="middle" font-weight="600" fill="#6b7280">กอง 2</text><rect x="250" y="190" width="96" height="18" rx="5" fill="#ffffff" stroke="#9ca3af" stroke-width="1.2" /><text x="298.0" y="204.0" font-size="14" text-anchor="middle" font-weight="600" fill="#1f2937">?</text><rect x="250" y="210" width="96" height="18" rx="5" fill="#ffffff" stroke="#9ca3af" stroke-width="1.2" /><text x="298.0" y="224.0" font-size="14" text-anchor="middle" font-weight="600" fill="#1f2937">?</text><rect x="250" y="230" width="96" height="18" rx="5" fill="#ffffff" stroke="#9ca3af" stroke-width="1.2" /><text x="298.0" y="244.0" font-size="14" text-anchor="middle" font-weight="600" fill="#1f2937">…</text><rect x="250" y="250" width="96" height="26" rx="5" fill="#ffffff" stroke="#f59e0b" stroke-width="3" /><text x="298.0" y="268.0" font-size="14" text-anchor="middle" font-weight="600" fill="#c62828">A♥</text><text x="458" y="182" font-size="12" text-anchor="middle" font-weight="600" fill="#6b7280">กอง 3</text><rect x="410" y="190" width="96" height="18" rx="5" fill="#ffffff" stroke="#9ca3af" stroke-width="1.2" /><text x="458.0" y="204.0" font-size="14" text-anchor="middle" font-weight="600" fill="#1f2937">?</text><rect x="410" y="210" width="96" height="18" rx="5" fill="#ffffff" stroke="#9ca3af" stroke-width="1.2" /><text x="458.0" y="224.0" font-size="14" text-anchor="middle" font-weight="600" fill="#1f2937">?</text><rect x="410" y="230" width="96" height="18" rx="5" fill="#ffffff" stroke="#9ca3af" stroke-width="1.2" /><text x="458.0" y="244.0" font-size="14" text-anchor="middle" font-weight="600" fill="#1f2937">…</text><rect x="410" y="250" width="96" height="26" rx="5" fill="#ffffff" stroke="#f59e0b" stroke-width="3" /><text x="458.0" y="268.0" font-size="14" text-anchor="middle" font-weight="600" fill="#c62828">A♦</text><text x="618" y="182" font-size="12" text-anchor="middle" font-weight="600" fill="#6b7280">กอง 4</text><rect x="570" y="190" width="96" height="18" rx="5" fill="#ffffff" stroke="#9ca3af" stroke-width="1.2" /><text x="618.0" y="204.0" font-size="14" text-anchor="middle" font-weight="600" fill="#1f2937">?</text><rect x="570" y="210" width="96" height="18" rx="5" fill="#ffffff" stroke="#9ca3af" stroke-width="1.2" /><text x="618.0" y="224.0" font-size="14" text-anchor="middle" font-weight="600" fill="#1f2937">?</text><rect x="570" y="230" width="96" height="18" rx="5" fill="#ffffff" stroke="#9ca3af" stroke-width="1.2" /><text x="618.0" y="244.0" font-size="14" text-anchor="middle" font-weight="600" fill="#1f2937">…</text><rect x="570" y="250" width="96" height="26" rx="5" fill="#ffffff" stroke="#f59e0b" stroke-width="3" /><text x="618.0" y="268.0" font-size="14" text-anchor="middle" font-weight="600" fill="#1f2937">A♣</text><text x="380" y="300" font-size="13" text-anchor="middle" font-weight="700" fill="#15803d">ใบสุดท้ายที่แจกของแต่ละกอง (บนสุด) = เอซ ครบ 4 กอง</text><text x="380" y="320" font-size="12" text-anchor="middle" font-weight="400" fill="#6b7280">ต้องแจกครบทั้ง 52 ใบ และสำรับห้ามถูกตัดก่อนแจก</text></svg>